<svg aria-roledescription="er" role="graphics-document document" viewBox="0 0 359.12322998046875 532" style="max-width: 359.123px; background-color: white;" xmlns:xlink="http://www.w3.org/1999/xlink" xmlns="http://www.w3.org/2000/svg" width="100%" id="my-svg"><style>#my-svg{font-family:"trebuchet ms",verdana,arial,sans-serif;font-size:16px;fill:#000000;}#my-svg .error-icon{fill:#552222;}#my-svg .error-text{fill:#552222;stroke:#552222;}#my-svg .edge-thickness-normal{stroke-width:2px;}#my-svg .edge-thickness-thick{stroke-width:3.5px;}#my-svg .edge-pattern-solid{stroke-dasharray:0;}#my-svg .edge-pattern-dashed{stroke-dasharray:3;}#my-svg .edge-pattern-dotted{stroke-dasharray:2;}#my-svg .marker{fill:#666;stroke:#666;}#my-svg .marker.cross{stroke:#666;}#my-svg svg{font-family:"trebuchet ms",verdana,arial,sans-serif;font-size:16px;}#my-svg .entityBox{fill:#eee;stroke:#999;}#my-svg .attributeBoxOdd{fill:#ffffff;stroke:#999;}#my-svg .attributeBoxEven{fill:#f2f2f2;stroke:#999;}#my-svg .relationshipLabelBox{fill:hsl(-160, 0%, 93.3333333333%);opacity:0.7;background-color:hsl(-160, 0%, 93.3333333333%);}#my-svg .relationshipLabelBox rect{opacity:0.5;}#my-svg .relationshipLine{stroke:#666;}#my-svg .entityTitleText{text-anchor:middle;font-size:18px;fill:#000000;}#my-svg #MD_PARENT_START{fill:#f5f5f5!important;stroke:#666!important;stroke-width:1;}#my-svg #MD_PARENT_END{fill:#f5f5f5!important;stroke:#666!important;stroke-width:1;}#my-svg :root{--mermaid-font-family:"trebuchet ms",verdana,arial,sans-serif;}</style><g/><defs><marker orient="auto" markerHeight="240" markerWidth="190" refY="7" refX="0" id="MD_PARENT_START"><path d="M 18,7 L9,13 L1,7 L9,1 Z"/></marker></defs><defs><marker orient="auto" markerHeight="28" markerWidth="20" refY="7" refX="19" id="MD_PARENT_END"><path d="M 18,7 L9,13 L1,7 L9,1 Z"/></marker></defs><defs><marker orient="auto" markerHeight="18" markerWidth="18" refY="9" refX="0" id="ONLY_ONE_START"><path d="M9,0 L9,18 M15,0 L15,18" fill="none" stroke="gray"/></marker></defs><defs><marker orient="auto" markerHeight="18" markerWidth="18" refY="9" refX="18" id="ONLY_ONE_END"><path d="M3,0 L3,18 M9,0 L9,18" fill="none" stroke="gray"/></marker></defs><defs><marker orient="auto" markerHeight="18" markerWidth="30" refY="9" refX="0" id="ZERO_OR_ONE_START"><circle r="6" cy="9" cx="21" fill="white" stroke="gray"/><path d="M9,0 L9,18" fill="none" stroke="gray"/></marker></defs><defs><marker orient="auto" markerHeight="18" markerWidth="30" refY="9" refX="30" id="ZERO_OR_ONE_END"><circle r="6" cy="9" cx="9" fill="white" stroke="gray"/><path d="M21,0 L21,18" fill="none" stroke="gray"/></marker></defs><defs><marker orient="auto" markerHeight="36" markerWidth="45" refY="18" refX="18" id="ONE_OR_MORE_START"><path d="M0,18 Q 18,0 36,18 Q 18,36 0,18 M42,9 L42,27" fill="none" stroke="gray"/></marker></defs><defs><marker orient="auto" markerHeight="36" markerWidth="45" refY="18" refX="27" id="ONE_OR_MORE_END"><path d="M3,9 L3,27 M9,18 Q27,0 45,18 Q27,36 9,18" fill="none" stroke="gray"/></marker></defs><defs><marker orient="auto" markerHeight="36" markerWidth="57" refY="18" refX="18" id="ZERO_OR_MORE_START"><circle r="6" cy="18" cx="48" fill="white" stroke="gray"/><path d="M0,18 Q18,0 36,18 Q18,36 0,18" fill="none" stroke="gray"/></marker></defs><defs><marker orient="auto" markerHeight="36" markerWidth="57" refY="18" refX="39" id="ZERO_OR_MORE_END"><circle r="6" cy="18" cx="9" fill="white" stroke="gray"/><path d="M21,18 Q39,0 57,18 Q39,36 21,18" fill="none" stroke="gray"/></marker></defs><path style="stroke: gray; fill: none;" marker-start="url(#ZERO_OR_MORE_START)" marker-end="url(#ZERO_OR_MORE_END)" d="M172.497,154.405L165.32,162.838C158.144,171.27,143.791,188.135,145.432,204.901C147.074,221.667,164.711,238.333,173.529,246.667L182.348,255" class="er relationshipLine"/><path style="stroke: gray; fill: none;" marker-start="url(#ZERO_OR_MORE_START)" marker-end="url(#ZERO_OR_MORE_END)" d="M299.676,444L304.636,435.667C309.596,427.333,319.517,410.667,315.659,394C311.801,377.333,294.164,360.667,285.346,352.333L276.527,344" class="er relationshipLine"/><path style="stroke: gray; fill: none;" marker-start="url(#ZERO_OR_ONE_START)" marker-end="url(#ONLY_ONE_END)" d="M163.993,339.472L149.114,348.56C134.235,357.648,104.477,375.824,89.598,393.412C74.719,411,74.719,428,74.719,436.5L74.719,445" class="er relationshipLine"/><path style="stroke: gray; fill: none;" marker-start="url(#ZERO_OR_ONE_START)" marker-end="url(#ONLY_ONE_END)" d="M229.438,255L229.438,246.667C229.438,238.333,229.438,221.667,229.438,205C229.438,188.333,229.438,171.667,229.438,163.333L229.438,155" class="er relationshipLine"/><path style="stroke: gray; fill: none;" marker-start="url(#ZERO_OR_ONE_START)" marker-end="url(#ONLY_ONE_END)" d="M229.438,344L229.438,352.333C229.438,360.667,229.438,377.333,234.398,394C239.358,410.667,249.279,427.333,254.239,435.667L259.199,444" class="er relationshipLine"/><g transform="translate(20,445 )" id="entity-UserRole-348851bc-4e3e-5e0e-a5b3-6fde704fd893"><rect height="66" width="109.4375" y="0" x="0" class="er entityBox"/><text style="dominant-baseline: middle; text-anchor: middle; font-size: 12px;" transform="translate(54.71875,12)" y="0" x="0" id="text-entity-UserRole-348851bc-4e3e-5e0e-a5b3-6fde704fd893" class="er entityLabel">UserRole</text><rect height="21" width="54.71875" y="24" x="0" class="er attributeBoxOdd"/><text style="dominant-baseline: middle; font-size: 10.2px;" transform="translate(5,34.5)" y="0" x="0" id="text-entity-UserRole-348851bc-4e3e-5e0e-a5b3-6fde704fd893-attr-1-type" class="er entityLabel">MEMBER</text><rect height="21" width="54.71875" y="24" x="54.71875" class="er attributeBoxOdd"/><text style="dominant-baseline: middle; font-size: 10.2px;" transform="translate(59.71875,34.5)" y="0" x="0" id="text-entity-UserRole-348851bc-4e3e-5e0e-a5b3-6fde704fd893-attr-1-name" class="er entityLabel">MEMBER</text><rect height="21" width="54.71875" y="45" x="0" class="er attributeBoxEven"/><text style="dominant-baseline: middle; font-size: 10.2px;" transform="translate(5,55.5)" y="0" x="0" id="text-entity-UserRole-348851bc-4e3e-5e0e-a5b3-6fde704fd893-attr-2-type" class="er entityLabel">ADMIN</text><rect height="21" width="54.71875" y="45" x="54.71875" class="er attributeBoxEven"/><text style="dominant-baseline: middle; font-size: 10.2px;" transform="translate(59.71875,55.5)" y="0" x="0" id="text-entity-UserRole-348851bc-4e3e-5e0e-a5b3-6fde704fd893-attr-2-name" class="er entityLabel">ADMIN</text></g><g transform="translate(172.49671936035156,20 )" id="entity-User-818c511a-4a32-5484-ba70-875d765a9175"><rect height="135" width="113.88156127929688" y="0" x="0" class="er entityBox"/><text style="dominant-baseline: middle; text-anchor: middle; font-size: 12px;" transform="translate(56.94078063964844,12)" y="0" x="0" id="text-entity-User-818c511a-4a32-5484-ba70-875d765a9175" class="er entityLabel">User</text><rect height="23" width="36.947052001953125" y="24" x="0" class="er attributeBoxOdd"/><text style="dominant-baseline: middle; font-size: 10.2px;" transform="translate(5,35.5)" y="0" x="0" id="text-entity-User-818c511a-4a32-5484-ba70-875d765a9175-attr-1-type" class="er entityLabel">String</text><rect height="23" width="53.93450927734375" y="24" x="36.947052001953125" class="er attributeBoxOdd"/><text style="dominant-baseline: middle; font-size: 10.2px;" transform="translate(41.947052001953125,35.5)" y="0" x="0" id="text-entity-User-818c511a-4a32-5484-ba70-875d765a9175-attr-1-name" class="er entityLabel">z_id</text><rect height="23" width="23" y="24" x="90.88156127929688" class="er attributeBoxOdd"/><text style="dominant-baseline: middle; font-size: 10.2px;" transform="translate(95.88156127929688,35.5)" y="0" x="0" id="text-entity-User-818c511a-4a32-5484-ba70-875d765a9175-attr-1-comment" class="er entityLabel">🗝️</text><rect height="21" width="36.947052001953125" y="47" x="0" class="er attributeBoxEven"/><text style="dominant-baseline: middle; font-size: 10.2px;" transform="translate(5,57.5)" y="0" x="0" id="text-entity-User-818c511a-4a32-5484-ba70-875d765a9175-attr-2-type" class="er entityLabel">String</text><rect height="21" width="53.93450927734375" y="47" x="36.947052001953125" class="er attributeBoxEven"/><text style="dominant-baseline: middle; font-size: 10.2px;" transform="translate(41.947052001953125,57.5)" y="0" x="0" id="text-entity-User-818c511a-4a32-5484-ba70-875d765a9175-attr-2-name" class="er entityLabel">email</text><rect height="21" width="23" y="47" x="90.88156127929688" class="er attributeBoxEven"/><text style="dominant-baseline: middle; font-size: 10.2px;" transform="translate(95.88156127929688,57.5)" y="0" x="0" id="text-entity-User-818c511a-4a32-5484-ba70-875d765a9175-attr-2-comment" class="er entityLabel"/><rect height="21" width="36.947052001953125" y="68" x="0" class="er attributeBoxOdd"/><text style="dominant-baseline: middle; font-size: 10.2px;" transform="translate(5,78.5)" y="0" x="0" id="text-entity-User-818c511a-4a32-5484-ba70-875d765a9175-attr-3-type" class="er entityLabel">String</text><rect height="21" width="53.93450927734375" y="68" x="36.947052001953125" class="er attributeBoxOdd"/><text style="dominant-baseline: middle; font-size: 10.2px;" transform="translate(41.947052001953125,78.5)" y="0" x="0" id="text-entity-User-818c511a-4a32-5484-ba70-875d765a9175-attr-3-name" class="er entityLabel">password</text><rect height="21" width="23" y="68" x="90.88156127929688" class="er attributeBoxOdd"/><text style="dominant-baseline: middle; font-size: 10.2px;" transform="translate(95.88156127929688,78.5)" y="0" x="0" id="text-entity-User-818c511a-4a32-5484-ba70-875d765a9175-attr-3-comment" class="er entityLabel"/><rect height="23" width="36.947052001953125" y="89" x="0" class="er attributeBoxEven"/><text style="dominant-baseline: middle; font-size: 10.2px;" transform="translate(5,100.5)" y="0" x="0" id="text-entity-User-818c511a-4a32-5484-ba70-875d765a9175-attr-4-type" class="er entityLabel">String</text><rect height="23" width="53.93450927734375" y="89" x="36.947052001953125" class="er attributeBoxEven"/><text style="dominant-baseline: middle; font-size: 10.2px;" transform="translate(41.947052001953125,100.5)" y="0" x="0" id="text-entity-User-818c511a-4a32-5484-ba70-875d765a9175-attr-4-name" class="er entityLabel">nickname</text><rect height="23" width="23" y="89" x="90.88156127929688" class="er attributeBoxEven"/><text style="dominant-baseline: middle; font-size: 10.2px;" transform="translate(95.88156127929688,100.5)" y="0" x="0" id="text-entity-User-818c511a-4a32-5484-ba70-875d765a9175-attr-4-comment" class="er entityLabel">❓</text><rect height="23" width="36.947052001953125" y="112" x="0" class="er attributeBoxOdd"/><text style="dominant-baseline: middle; font-size: 10.2px;" transform="translate(5,123.5)" y="0" x="0" id="text-entity-User-818c511a-4a32-5484-ba70-875d765a9175-attr-5-type" class="er entityLabel">String</text><rect height="23" width="53.93450927734375" y="112" x="36.947052001953125" class="er attributeBoxOdd"/><text style="dominant-baseline: middle; font-size: 10.2px;" transform="translate(41.947052001953125,123.5)" y="0" x="0" id="text-entity-User-818c511a-4a32-5484-ba70-875d765a9175-attr-5-name" class="er entityLabel">name</text><rect height="23" width="23" y="112" x="90.88156127929688" class="er attributeBoxOdd"/><text style="dominant-baseline: middle; font-size: 10.2px;" transform="translate(95.88156127929688,123.5)" y="0" x="0" id="text-entity-User-818c511a-4a32-5484-ba70-875d765a9175-attr-5-comment" class="er entityLabel">❓</text></g><g transform="translate(229.4375,444 )" id="entity-Group-c50154b9-939c-5428-9ef3-b05ac51a8a04"><rect height="68" width="100" y="0" x="0" class="er entityBox"/><text style="dominant-baseline: middle; text-anchor: middle; font-size: 12px;" transform="translate(50,12)" y="0" x="0" id="text-entity-Group-c50154b9-939c-5428-9ef3-b05ac51a8a04" class="er entityLabel">Group</text><rect height="23" width="38.358744303385414" y="24" x="0" class="er attributeBoxOdd"/><text style="dominant-baseline: middle; font-size: 10.2px;" transform="translate(5,35.5)" y="0" x="0" id="text-entity-Group-c50154b9-939c-5428-9ef3-b05ac51a8a04-attr-1-type" class="er entityLabel">String</text><rect height="23" width="37.22956339518229" y="24" x="38.358744303385414" class="er attributeBoxOdd"/><text style="dominant-baseline: middle; font-size: 10.2px;" transform="translate(43.358744303385414,35.5)" y="0" x="0" id="text-entity-Group-c50154b9-939c-5428-9ef3-b05ac51a8a04-attr-1-name" class="er entityLabel">z_id</text><rect height="23" width="24.411692301432293" y="24" x="75.5883076985677" class="er attributeBoxOdd"/><text style="dominant-baseline: middle; font-size: 10.2px;" transform="translate(80.5883076985677,35.5)" y="0" x="0" id="text-entity-Group-c50154b9-939c-5428-9ef3-b05ac51a8a04-attr-1-comment" class="er entityLabel">🗝️</text><rect height="21" width="38.358744303385414" y="47" x="0" class="er attributeBoxEven"/><text style="dominant-baseline: middle; font-size: 10.2px;" transform="translate(5,57.5)" y="0" x="0" id="text-entity-Group-c50154b9-939c-5428-9ef3-b05ac51a8a04-attr-2-type" class="er entityLabel">String</text><rect height="21" width="37.22956339518229" y="47" x="38.358744303385414" class="er attributeBoxEven"/><text style="dominant-baseline: middle; font-size: 10.2px;" transform="translate(43.358744303385414,57.5)" y="0" x="0" id="text-entity-Group-c50154b9-939c-5428-9ef3-b05ac51a8a04-attr-2-name" class="er entityLabel">name</text><rect height="21" width="24.411692301432293" y="47" x="75.5883076985677" class="er attributeBoxEven"/><text style="dominant-baseline: middle; font-size: 10.2px;" transform="translate(80.5883076985677,57.5)" y="0" x="0" id="text-entity-Group-c50154b9-939c-5428-9ef3-b05ac51a8a04-attr-2-comment" class="er entityLabel"/></g><g transform="translate(163.99349975585938,255 )" id="entity-GroupEnrollment-6186033b-9991-51c7-a99a-df4949ef6730"><rect height="89" width="130.88800048828125" y="0" x="0" class="er entityBox"/><text style="dominant-baseline: middle; text-anchor: middle; font-size: 12px;" transform="translate(65.44400024414062,12)" y="0" x="0" id="text-entity-GroupEnrollment-6186033b-9991-51c7-a99a-df4949ef6730" class="er entityLabel">GroupEnrollment</text><rect height="23" width="54.113128662109375" y="24" x="0" class="er attributeBoxOdd"/><text style="dominant-baseline: middle; font-size: 10.2px;" transform="translate(5,35.5)" y="0" x="0" id="text-entity-GroupEnrollment-6186033b-9991-51c7-a99a-df4949ef6730-attr-1-type" class="er entityLabel">String</text><rect height="23" width="53.774871826171875" y="24" x="54.113128662109375" class="er attributeBoxOdd"/><text style="dominant-baseline: middle; font-size: 10.2px;" transform="translate(59.113128662109375,35.5)" y="0" x="0" id="text-entity-GroupEnrollment-6186033b-9991-51c7-a99a-df4949ef6730-attr-1-name" class="er entityLabel">z_id</text><rect height="23" width="23" y="24" x="107.88800048828125" class="er attributeBoxOdd"/><text style="dominant-baseline: middle; font-size: 10.2px;" transform="translate(112.88800048828125,35.5)" y="0" x="0" id="text-entity-GroupEnrollment-6186033b-9991-51c7-a99a-df4949ef6730-attr-1-comment" class="er entityLabel">🗝️</text><rect height="21" width="54.113128662109375" y="47" x="0" class="er attributeBoxEven"/><text style="dominant-baseline: middle; font-size: 10.2px;" transform="translate(5,57.5)" y="0" x="0" id="text-entity-GroupEnrollment-6186033b-9991-51c7-a99a-df4949ef6730-attr-2-type" class="er entityLabel">DateTime</text><rect height="21" width="53.774871826171875" y="47" x="54.113128662109375" class="er attributeBoxEven"/><text style="dominant-baseline: middle; font-size: 10.2px;" transform="translate(59.113128662109375,57.5)" y="0" x="0" id="text-entity-GroupEnrollment-6186033b-9991-51c7-a99a-df4949ef6730-attr-2-name" class="er entityLabel">createdAt</text><rect height="21" width="23" y="47" x="107.88800048828125" class="er attributeBoxEven"/><text style="dominant-baseline: middle; font-size: 10.2px;" transform="translate(112.88800048828125,57.5)" y="0" x="0" id="text-entity-GroupEnrollment-6186033b-9991-51c7-a99a-df4949ef6730-attr-2-comment" class="er entityLabel"/><rect height="21" width="54.113128662109375" y="68" x="0" class="er attributeBoxOdd"/><text style="dominant-baseline: middle; font-size: 10.2px;" transform="translate(5,78.5)" y="0" x="0" id="text-entity-GroupEnrollment-6186033b-9991-51c7-a99a-df4949ef6730-attr-3-type" class="er entityLabel">UserRole</text><rect height="21" width="53.774871826171875" y="68" x="54.113128662109375" class="er attributeBoxOdd"/><text style="dominant-baseline: middle; font-size: 10.2px;" transform="translate(59.113128662109375,78.5)" y="0" x="0" id="text-entity-GroupEnrollment-6186033b-9991-51c7-a99a-df4949ef6730-attr-3-name" class="er entityLabel">role</text><rect height="21" width="23" y="68" x="107.88800048828125" class="er attributeBoxOdd"/><text style="dominant-baseline: middle; font-size: 10.2px;" transform="translate(112.88800048828125,78.5)" y="0" x="0" id="text-entity-GroupEnrollment-6186033b-9991-51c7-a99a-df4949ef6730-attr-3-comment" class="er entityLabel"/></g><rect height="14" width="36.703125" y="200.193359375" x="127.40267944335938" class="er relationshipLabelBox"/><text style="text-anchor: middle; dominant-baseline: middle; font-size: 12px;" y="207.193359375" x="145.75424194335938" id="rel1" class="er relationshipLabel">groups</text><rect height="14" width="50.015625" y="382.0206604003906" x="289.10760498046875" class="er relationshipLabelBox"/><text style="text-anchor: middle; dominant-baseline: middle; font-size: 12px;" y="389.0206604003906" x="314.11541748046875" id="rel2" class="er relationshipLabel">members</text><rect height="14" width="53.6875" y="373.47344970703125" x="75.98877716064453" class="er relationshipLabelBox"/><text style="text-anchor: middle; dominant-baseline: middle; font-size: 12px;" y="380.47344970703125" x="102.83252716064453" id="rel3" class="er relationshipLabel">enum:role</text><rect height="14" width="23.34765625" y="198" x="217.76417541503906" class="er relationshipLabelBox"/><text style="text-anchor: middle; dominant-baseline: middle; font-size: 12px;" y="205" x="229.43800354003906" id="rel4" class="er relationshipLabel">user</text><rect height="14" width="31.017578125" y="389.6324462890625" x="219.71298217773438" class="er relationshipLabelBox"/><text style="text-anchor: middle; dominant-baseline: middle; font-size: 12px;" y="396.6324462890625" x="235.22177124023438" id="rel5" class="er relationshipLabel">group</text></svg>